# xmcd
#
# Track frame offsets:
#	150
#	11850
#	24450
#	39075
#	50650
#	61170
#	77812
#	89482
#	105800
#	116242
#	128072
#	137637
#
# Disc length: 2030 seconds
#
# Revision: 2
# Processed by: cddbd v1.4PL0 Copyright (c) Steve Scherf et al.
# Submitted via: CDmax 2.0
#
DISCID=9507ec0c
DTITLE=Dinah Washington - The Best of Dinah Washington
DYEAR=1900
DGENRE=Blues
TTITLE0=No Hard Feelings
TTITLE1=You're Nobody Till Somebody Loves You
TTITLE2=He's My Guy
TTITLE3=The Good Life
TTITLE4=Do Nothin' Till You Hear From Me
TTITLE5=I Wanna Be Around
TTITLE6=Destination Moon
TTITLE7=If It's the Last Thing I Do
TTITLE8=Call Me Irresponsible
TTITLE9=Don't Say Nothing At All
TTITLE10=What Kind of Fool Am I
TTITLE11=For All We Know
EXTD=LABEL =Roulette Records\nID =RCD59031\nUPC =none\nCOPYRIGHT =none
EXTT0=
EXTT1=
EXTT2=
EXTT3=
EXTT4=
EXTT5=
EXTT6=
EXTT7=
EXTT8=
EXTT9=
EXTT10=
EXTT11=
PLAYORDER=
